<svg xmlns="http://www.w3.org/2000/svg" width="66" height="65" stroke="#000" stroke-linecap="round" stroke-linejoin="round" fill="#fff" fill-rule="evenodd"><path d="M62.7945 29.1494l-27.942-27.942C34.0797.4344 33.0315 0 31.9384 0a4.12 4.12 0 0 0-2.9139 1.2074l-5.8 5.8 7.36 7.36c1.712-.6 3.672-.2 5.036 1.174 1.3248 1.3272 1.776 3.294 1.162 5.066l7.094 7.094c1.716-.592 3.696-.2 5.066 1.164 1.239 1.2394 1.7226 3.0456 1.2688 4.7383s-1.7762 3.0146-3.47 3.468-3.4988-.031-4.738-1.2703c-1.44-1.44-1.796-3.56-1.068-5.334l-6.616-6.616v17.4a5.003 5.003 0 0 1 1.3.928c1.9148 1.9153 1.9146 5.02-.0005 6.935s-5.02 1.915-6.935 0-1.9153-5.0198-.0004-6.935c.474-.472 1-.83 1.606-1.07v-17.572a4.869 4.869 0 0 1-1.606-1.07c-1.4086-1.4068-1.826-3.526-1.056-5.362l-7.26-7.256-19.16 19.14A4.12 4.12 0 0 0 0 31.9144a4.12 4.12 0 0 0 1.2085 2.915l27.944 27.94a4.12 4.12 0 0 0 5.8279 0l27.814-27.77a4.12 4.12 0 0 0 0-5.83" stroke="none" fill-rule="nonzero" fill="#000"/></svg>