<svg xmlns="http://www.w3.org/2000/svg" width="258" height="135" stroke="none" stroke-linecap="round" stroke-linejoin="round" fill="#000" fill-rule="evenodd"><path d="M.5 120.926h8.4338V87.6336L22 116.6674c1.54 3.5 3.65 4.7575 7.785 4.7575s6.1625-1.2438 7.705-4.7575l13.0575-29.0338v33.305h8.435v-33.25c0-3.2437-1.3-4.8125-3.975-5.6225-6.4063-2-10.705-.27-12.65 4.055L29.535 114.775l-12.4-28.6663c-1.865-4.325-6.2437-6.055-12.65-4.055C1.7975 82.865.5 84.4336.5 87.676v33.25zm65.4825-27.1075h8.4313v18.35c-.0788.9975.32 3.3375 4.94 3.4088 2.3574.0375 18.1924 0 18.34 0v-21.85h8.45c.0375 0-.0087 29.7925-.0074 29.92.0462 7.3474-9.1175 8.9437-13.34 9.0675h-26.63v-5.675l26.6775-.0012c5.4275-.575 4.7874-3.2712 4.7874-4.18v-2.225h-17.925c-8.34-.075-13.65-3.7162-13.7162-7.9037-.0063-.375.18-18.7438-.005-18.925zm46.6625 27.1075h24.2475c2.8375 0 5.5963-.5937 7.7875-1.6224 3.65-1.675 5.4337-3.9463 5.4337-6.92V106.22c0-2.4337-2.0275-4.7037-6-6.2175-2.1087-.8124-4.7037-1.2437-7.2175-1.2437h-10.2187c-3.405 0-5.0275-1.0275-5.4325-3.2975-.0812-.27-.0812-.5-.0812-.7575v-3.8375c0-.2162 0-.4337.0812-.7037.405-1.73 1.2975-2.2176 4.2975-2.5.2438 0 .5675-.055.8125-.055h24.085v-5.6212h-23.68c-3.4063 0-5.2.2163-6.8125.7025-5.0325 1.5688-7.2225 4.0688-7.2225 8.3937v4.92c0 3.785 4.3 7.0288 11.515 7.785.8125.0538 1.6225.1075 2.4325.1075h8.7587c.325 0 .65 0 .8925.055 2.675.2163 3.8125.7025 4.6225 1.675.5.5.65.975.65 1.5v4.92c0 .595-.405 1.3524-1.2162 2-.73.65-1.9463 1.0813-3.5688 1.2-.325 0-.5675.0538-.8912.0538h-23.275v5.6225zm90.08-9.785c0 5.785 4.2975 9.0288 12.975 9.6775a36.774 36.774 0 0 0 2.4325.1075H240.1v-5.6224h-22.14c-4.9463 0-6.8125-1.2438-6.8125-4.2175V81.9986h-8.4338v29.14zm-47.2313.2925V91.3898c0-5.0925 3.575-8.1812 10.645-9.1563.754-.1077 1.5147-.162 2.2763-.1624h16.0088a17.325 17.325 0 0 1 2.3574.1624c7.07.975 10.645 4.0625 10.645 9.1563v20.0437c0 4.1313-1.5187 6.3426-5.0187 7.7838l8.3075 7.5h-9.7925l-6.7213-6.0675-6.7662.4287h-9.02c-1.5438 0-3.1688-.2175-4.9575-.705-5.375-1.4626-7.9625-4.28-7.9625-8.94zm9.1038-.5c0 .2713.0812.5413.1625.8675.5 2.33 2.6812 3.63 6 3.63h7.6625l-7.0375-6.3537h9.7925l6.125 5.5412c1.1312-.6024 1.875-1.525 2.125-2.7087.0813-.27.0813-.5413.0813-.8125V91.8785c0-.2162 0-.5-.0813-.7587-.5-2.1663-2.6825-3.4125-5.9325-3.4125h-12.72c-3.75 0-6.175 1.625-6.175 4.1712v19.07zM247.53 72.67c-5.1837-.14-9.145.3412-12.53 1.7688-.9625.4062-2.4962.4162-2.6537 1.6224.5287.5538.625 1.3813 1.0312 2.0625.8088 1.3088 2.175 3.0625 3.3913 3.98 1.33 1.0038 2.7 2.0788 4.1287 2.95 2.5376 1.5475 5.37 2.4313 7.8125 3.98 1.44.9125 2.87 2.0625 4.275 3.095.6938.5 1.1625 1.3025 2.0625 1.6213v-.1475c-.475-.6038-.5962-1.4338-1.0312-2.0625L252.1 89.6248c-1.875-2.5-4.2525-4.6712-6.7812-6.5-2.0163-1.4476-6.53-3.4026-7.3713-5.75l-.1475-.1475c1.43-.1625 3.1038-.6787 4.425-1.0312 2.2163-.5938 4.1975-.4413 6.5-1.0313l3.0963-.885v-.6c-1.1575-1.1875-1.9825-2.7587-3.2438-3.8324-3.3-2.8125-6.9037-5.6188-10.625-7.9626-2.0575-1.3-4.6-2.1424-6.7812-3.2437-.7338-.37-2.0225-.5625-2.5063-1.18-1.145-1.46-1.7687-3.3125-2.6524-5-1.85-3.5625-3.6676-7.455-5.3075-11.2038-1.1188-2.5562-1.85-5.0775-3.2425-7.3712-6.6938-11.005-13.9-17.6475-25.06-24.175-2.375-1.375-5.2338-1.9375-8.2563-2.6537l-4.865-.295c-1-.4125-2.02-1.625-2.95-2.2125-3.6975-2.3375-13.1812-7.4162-15.92-.75-1.7288 4.2163 2.5838 8.33 4.1275 10.4675 1.0825 1.5 2.47 3.1788 3.2425 4.865.5087 1.1075.5975 2.2188 1.0325 3.3913 1.0713 2.875 2.0038 6.0287 3.4 8.6975.7 1.35 1.4725 2.7725 2.3588 3.98.5437.7412 1.475 1.0675 1.6212 2.2125-.9 1.275-.9625 3.25-1.475 4.865-2.3038 7.265-1.435 16.2937 1.9162 21.6712 1.0288 1.65 3.45 5.2 6.7813 3.8325 2.9125-1.1875 2.25-4.875 3.0963-8.1075.1875-.75.0724-1.275.4425-1.7687v.1475l2.6537 5.3062c1.9625 3.1625 5.45 6.4688 8.4025 8.7 1.5312 1.1563 2.75 3.1563 4.7175 3.8325v-.1475h-.1475c-.3837-.6-.9837-.8462-1.475-1.325-1.1538-1.1312-2.4375-2.5375-3.3912-3.8325-2.6876-3.6475-5.06-7.625-7.2226-11.7937-1.0324-1.9838-1.9312-4.1725-2.8-6.1913-.335-.7787-.3313-1.955-1.0313-2.3587-.9538 1.48-2.3587 2.675-3.0962 4.4225-1.18 2.7925-1.3326 6.1975-1.7688 9.73-.2588.0925-.1437.0287-.295.1475-2.0525-.495-2.775-2.6088-3.5375-4.4225-1.93-4.5875-2.2875-11.97-.6-17.2475.4375-1.365 2.425-5.6675 1.6212-6.9288-.3837-1.2587-1.65-2-2.3587-2.95-.875-1.1875-1.7525-2.755-2.3587-4.1275-1.58-3.575-2.3175-7.5875-3.98-11.2037-.795-1.7275-2.125-3.475-3.2425-5-1.2224-1.7-2.5912-2.955-3.5374-5-.3376-.7313-.795-1.9-.295-2.6537a1.163 1.163 0 0 1 .885-.8851c.855-.6587 3.25.2188 4.1275.6 2.375.9825 4.3375 1.9175 6.34 3.2438.9626.625 1.9338 1.87 3.095 2.2125h1.325c2.075.4775 4.4.15 6.3376.75 3.4275 1.0412 6.4975 2.6625 9.2875 4.4225 8.4975 5.365 15.4437 13.0025 20.1962 22.125.765 1.4662 1.095 2.8675 1.7687 4.4225 1.3588 3.125 3.07 6.3662 4.4225 9.4337s2.6625 6.15 4.57 8.6975c1.0025 1.3375 4.875 2.0575 6.6338 2.8 1.2338.5213 3.2537 1.065 4.4225 1.7688 2.2312 1.3462 4.3937 2.95 6.5 4.425 1.0462.75 4.25 2.3537 4.4225 3.685z" fill-rule="nonzero"/><path d="M181.625 16.506c-1.0813-.02-1.845.1175-2.6538.295v.1475h.1475c.515 1.06 1.425 1.7412 2.0625 2.6537l1.475 3.095.1475-.1476c.9125-.6437 1.3313-1.6725 1.325-3.2437-.3662-.385-.42-.8675-.75-1.3275-.4212-.625-1.25-.96-1.7687-1.475zm62.4437 98.6376c0 3.7125 2.9337 6.215 6.215 6.215s6.215-2.5025 6.215-6.215-2.9338-6.215-6.215-6.215-6.215 2.5025-6.215 6.215zm11.0375 0c0 2.8175-2.1538 4.9225-4.825 4.9225-2.7 0-4.825-2.105-4.825-4.9225s2.1225-4.9225 4.825-4.9225c2.6688 0 4.825 2.105 4.825 4.9225zm-3.15 3.5475h1.3913l-2.0376-3.115c1.0938-.1162 1.9213-.6475 1.9213-1.94 0-1.4425-.9125-2.0375-2.6675-2.0375h-2.7688v7.0938h1.1938v-3.0663h1.1l1.8562 3.0663zm-2.9675-4.0625v-2.0375h1.375c.7125 0 1.575.1325 1.575.9625 0 .9937-.7787 1.0775-1.675 1.0775h-1.275z"/></svg>