<svg xmlns="http://www.w3.org/2000/svg" width="166" height="160" stroke="#000" stroke-linecap="round" stroke-linejoin="round" fill="#000" fill-rule="evenodd"><path d="M106.2037 100.3182c.565-4.6113.3957-5.2876 3.9013-4.5406l.9.0766c2.6956.12 6.2217-.4248 8.2933-1.3677 4.4595-2.0274 7.1038-5.4123 2.7066-4.523-10.0303 2.0274-10.72-1.3003-10.72-1.3003 10.5914-15.3972 15.02-34.9424 11.1973-39.7267-10.4237-13.0498-28.467-6.8788-28.769-6.7186l-.096.0174c-1.9818-.403-4.1998-.6436-6.6913-.683-4.539-.073-7.9833 1.166-10.596 3.1075 0 0-32.188-12.993-30.6906 16.34.3184 6.24 9.129 47.2165 19.637 34.8396 3.8407-4.5257 7.5523-8.3524 7.5523-8.3524 1.843 1.1997 4.0496 1.8116 6.364 1.5918l.179-.1495c-.056.562-.0313 1.1116.0716 1.7622-2.7065 2.9635-1.9113 3.4838-7.3233 4.5753-5.4755 1.1057-2.2587 3.0742-.16 3.5886 2.5462.624 8.4365 1.5077 12.4176-3.9515l-.1586.623c1.062.8324.99 5.9826 1.1407 9.6623s.4022 7.114 1.1678 9.1385 1.67 7.2392 8.7817 5.7456c5.9445-1.248 10.4895-3.0445 10.9037-19.755" stroke-linecap="butt" stroke-width="6"/><path d="M121.996 89.9632c-10.0312 2.0274-10.7208-1.3003-10.7208-1.3003 10.5914-15.398 15.019-34.9438 11.198-39.7275-10.4237-13.05-28.4677-6.8776-28.7688-6.7174l-.097.017c-1.982-.403-4.1998-.6432-6.6926-.683-4.54-.073-7.982 1.166-10.5946 3.107 0 0-32.1887-12.9924-30.6917 16.3403.3185 6.2403 9.1287 47.217 19.6372 34.84 3.841-4.5258 7.552-8.3524 7.552-8.3524 1.8432 1.1996 4.0498 1.8116 6.363 1.5918l.1797-.1495c-.056.562-.0303 1.1116.072 1.7622-2.7072 2.9635-1.9117 3.4838-7.3234 4.5752-5.476 1.1057-2.26 3.0743-.1587 3.5887 2.5462.624 8.437 1.5076 12.417-3.9515l-.1587.623c1.0607.8323 1.8055 5.4144 1.6807 9.568s-.2082 7.0054.6276 9.2328 1.6687 7.2392 8.783 5.7456c5.9445-1.248 9.025-4.4826 9.4535-9.8778.304-3.8357.9923-3.2687 1.0358-6.698l.552-1.6235c.6366-5.1995.101-6.877 3.7635-6.0967l.9.0766c2.6956.12 6.2235-.4248 8.294-1.3677 4.4586-2.0274 7.103-5.4123 2.7067-4.523z" stroke="none"/><g stroke="#fff" stroke-width="2"><path d="M84.7982 92.9436c-.2762 9.6748.0694 19.417 1.0356 21.7848s3.0358 6.973 10.1505 5.4797c5.944-1.2486 8.1067-3.6647 9.0452-8.998.6912-3.9237 2.0237-14.82 2.1946-17.0536M76.2705 44.443S44.06 31.544 45.5573 60.8768c.3185 6.2403 9.1293 47.2183 19.6376 34.8408 3.84-4.5263 7.313-8.0764 7.313-8.0764"/><path d="M93.67 42.0886c-1.115.3426 17.9176-6.817 28.734 6.7247 3.8207 4.784-.6068 24.3295-11.198 39.728"/><path d="M111.2047 88.5413s.6902 3.3287 10.7217 1.3c4.3952-.8895 1.75 2.4958-2.7076 4.5242-3.6584 1.6635-11.8603 2.0898-11.9943-.21-.3448-5.93 4.3168-4.13 3.9804-5.6153-.304-1.3384-2.39-2.652-3.768-5.9276-1.204-2.8592-16.5112-24.7848 4.245-21.5285.7604-.1542-5.4135-19.3438-24.8384-19.6558s-18.7835 23.4-18.7835 23.4m11.3016 25.7404c-2.7075 2.9633-1.9113 3.4836-7.3233 4.5754-5.476 1.106-2.2587 3.074-.16 3.5883 2.5462.6243 8.437 1.508 12.4172-3.9525 1.212-1.6625-.0072-4.3153-1.6722-4.9916-.8045-.3264-1.88-.7356-3.2627.7804z"/><path d="M79.1843 90.518c-.2728-1.7422.5843-3.8155 1.5028-6.24 1.3804-3.6393 4.5654-7.2792 2.0176-18.8235-1.899-8.6028-14.6367-1.7904-14.6447-.624s.576 5.9124-.2128 11.4396c-1.0294 7.2123 4.684 13.3122 11.263 12.688"/><path d="M76.1534 64.6547c-.0574.3984.7444 1.4615 1.8 1.6035s1.9372-.688 1.9938-1.086-.7442-.8373-1.7902-.98-1.9382.065-1.9934.4625zm31.7926-.8123c.0566.3984-.7442 1.4615-1.8 1.6035s-1.938-.688-1.9952-1.086.7458-.8373 1.7906-.98 1.938.065 1.9946.4627zm3.736-2.7572c.172 3.125-.687 5.2536-.7953 8.5803-.1603 4.8354 2.353 10.37-1.434 15.9114"/></g></svg>