<svg xmlns="http://www.w3.org/2000/svg" width="48" height="46" stroke="#000" stroke-linecap="round" stroke-linejoin="round" fill="#fff" fill-rule="evenodd"><path d="M42.6977 2.3777c-.657 1.5-1.4982 2.94-2.506 4.2605C34.2042.8747 25.4427-1.351 17.2634.8137S2.755 9.198.7005 17.0898 1.1847 33.3225 7.344 38.917l.8693.7356c6.764 5.4633 16.154 6.8257 24.3018 3.526S46.189 32.4752 46.8176 24.018c.6413-5.74-1.117-12.9978-4.1192-21.6396zM10.69 39.0478c-.512.6063-1.3544.8572-2.1346.6356s-1.3442-.8718-1.429-1.6476.3263-1.524 1.0417-1.8957 1.594-.2937 2.2257.1978c.8618.6703.9943 1.883.296 2.71zm31.91-6.745c-5.805 7.4123-18.2 4.9182-26.1456 5.2708 0 0-1.4087.0794-2.827.3022l1.219-.466c5.5807-1.8618 8.2185-2.22 11.6084-3.8923 6.3825-3.1103 12.696-9.922 14.008-17.0026-2.4282 6.8116-9.8016 12.669-16.5132 15.048-4.6 1.625-12.91 3.208-12.91 3.208l-.335-.172c-5.654-2.6417-5.8276-14.379 4.454-18.166 4.5025-1.6623 8.8-.7496 13.6724-1.8618 5.1922-1.1825 11.1994-4.918 13.6438-9.7772 2.734 7.7846 6.0277 19.969.1217 27.5062z" stroke="none" fill="#000" fill-rule="nonzero"/></svg>